<svg xmlns="http://www.w3.org/2000/svg" xmlns:xlink="http://www.w3.org/1999/xlink" width="48" height="48" id="money">
  <defs>
    <linearGradient xlink:href="#a" id="b" x1="906.952" x2="931.379" y1="515.915" y2="546.094" gradientTransform="translate(-1388.719 211.343)scale(1.53785)" gradientUnits="userSpaceOnUse"></linearGradient>
    <linearGradient id="a">
      <stop offset="0" stop-color="#ffd800"></stop>
      <stop offset="1" stop-color="#ff6100"></stop>
    </linearGradient>
  </defs>
  <g transform="translate(0 -1004.362)">
    <rect width="48" height="48" y="1004.362" fill="url(#b)" rx="10.144" ry="10.144"></rect>
    <path fill="#fff" d="M19.535 1013.363c-.34 0-.682.096-.98.287-.54.347-.859.94-.916 1.586a.5.5 0 0 0-.022.155c0 .01.002.013.002.019 0 .01-.004.017-.004.025a.5.5 0 0 0 .01.105c.042 1.572.737 3.068 1.937 4.174v1.234c-6.513 5.487-8.439 10.638-8.54 14.612H11v.779c0 2.041 1.424 3.817 3.576 5.05 2.152 1.235 5.073 1.973 8.301 1.973h1.82c3.228 0 6.15-.738 8.301-1.972 2.152-1.234 3.576-3.01 3.576-5.051v-.78h-.021c-.102-3.961-2.017-9.093-8.485-14.562v-1.34c1.164-1.1 1.84-2.57 1.881-4.115a.5.5 0 0 0 .01-.107c0-.01-.004-.017-.004-.025l.002-.02a.5.5 0 0 0-.021-.154c-.058-.645-.376-1.24-.916-1.585a1.817 1.817 0 0 0-1.96 0 1.949 1.949 0 0 0-.437.394 1.941 1.941 0 0 0-.437-.395 1.817 1.817 0 0 0-2.399.397c-.015-.018-.025-.041-.04-.06a1.955 1.955 0 0 0-.4-.337 1.816 1.816 0 0 0-1.484-.217 1.816 1.816 0 0 0-.472.217 1.971 1.971 0 0 0-.399.338c-.016.018-.025.04-.04.059a1.947 1.947 0 0 0-.438-.397 1.81 1.81 0 0 0-.979-.287zm-.002.992a.81.81 0 0 1 .44.137c.28.18.475.536.478.936v.01a.5.5 0 0 0 .139.35.5.5 0 0 0 .115.091.5.5 0 0 1 .002 0 .5.5 0 0 0 .09.041.5.5 0 0 1 .002 0 .5.5 0 0 0 .094.022.5.5 0 0 0 .003 0 .5.5 0 0 0 .047 0 .5.5 0 0 0 .1-.01.5.5 0 0 1 .002 0 .5.5 0 0 0 .049-.012.5.5 0 0 0 .015-.01.5.5 0 0 0 .03-.01.5.5 0 0 1 .002 0 .5.5 0 0 0 .127-.074.5.5 0 0 1 .002 0 .5.5 0 0 1 .002 0 .5.5 0 0 0 .033-.03.5.5 0 0 1 .002 0 .5.5 0 0 0 .146-.36v-.01c.001-.098.011-.194.034-.285.068-.28.232-.515.443-.65a.78.78 0 0 1 .879 0c.282.18.478.54.478.943a.5.5 0 0 0 0 .033.5.5 0 0 0 .016.098.5.5 0 0 0 .016.047.5.5 0 0 0 .072.13.5.5 0 0 0 .033.038.5.5 0 0 0 .035.033.5.5 0 0 0 .27.119.5.5 0 0 1 .002 0 .5.5 0 0 0 .049 0 .5.5 0 0 0 .24-.06.5.5 0 0 1 .002 0 .5.5 0 0 0 .043-.024.5.5 0 0 0 .222-.424c0-.403.197-.763.479-.943a.78.78 0 0 1 .878 0c.28.18.474.536.477.935v.01a.5.5 0 0 0 .139.35.5.5 0 0 0 .115.092.5.5 0 0 1 .002 0 .5.5 0 0 0 .09.04.5.5 0 0 1 .002 0 .5.5 0 0 0 .093.023.5.5 0 0 0 .004 0 .5.5 0 0 0 .047 0 .5.5 0 0 0 .102-.01.5.5 0 0 0 .049-.012.5.5 0 0 0 .015-.01.5.5 0 0 0 .03-.01.5.5 0 0 1 .002 0 .5.5 0 0 0 .045-.02.5.5 0 0 0 .083-.057.5.5 0 0 1 .002 0 .5.5 0 0 0 .034-.031.5.5 0 0 1 .002 0 .5.5 0 0 0 .062-.076.5.5 0 0 0 .026-.043.5.5 0 0 0 .058-.24v-.01c.003-.4.199-.756.479-.936a.777.777 0 0 1 .877 0c.275.177.468.526.476.918-.005 1.22-.492 2.393-1.373 3.318h-7.59c-.881-.925-1.368-2.098-1.373-3.318.008-.392.201-.741.477-.918a.81.81 0 0 1 .437-.137zm1.03 5.374h6.505v.89h-6.506v-.89zm-.231 1.89h6.91c6.625 5.538 8.332 10.553 8.332 14.287v.434c0 1.573-1.114 3.06-3.074 4.184-1.96 1.124-4.729 1.84-7.803 1.84h-1.82c-3.074 0-5.842-.716-7.803-1.84-1.96-1.125-3.074-2.611-3.074-4.184v-.434c0-3.734 1.707-8.749 8.332-14.287zm3.724 4.746c-3.589 0-6.482 2.92-6.482 6.498 0 3.58 2.893 6.5 6.482 6.5 3.589 0 6.518-2.916 6.518-6.5a.5.5 0 0 0-.037-.183c-.104-3.493-2.957-6.315-6.48-6.315zm0 1c3.049 0 5.518 2.46 5.518 5.498 0 3.04-2.47 5.5-5.518 5.5a5.473 5.473 0 0 1-5.482-5.5 5.473 5.473 0 0 1 5.482-5.498zm-2.44 2.028v.01h-.022v1h1.025c.934 0 1.406.441 1.576.99h-2.58v1h2.58c-.17.548-.643.992-1.576.992h-.352l-.005-.01-.006.01h-.662v.68l-.03.029.03.029v.261h.267l3.08 3.01.7-.715-2.413-2.355a2.514 2.514 0 0 0 1.992-1.932h1.364v-1H25.22c-.077-.36-.243-.7-.478-1h1.842v-1h-4.969z" color="#000" font-family="sans-serif" font-weight="400" overflow="visible" style="line-height:normal;text-indent:0;text-align:start;text-decoration-line:none;text-decoration-style:solid;text-decoration-color:#000;text-transform:none;block-progression:tb;isolation:auto;mix-blend-mode:normal"></path>
  </g>
</svg>
